<svg width="317pt" height="404pt" viewBox="0.00 0.00 317.00 404.00" xmlns="http://www.w3.org/2000/svg" xmlns:xlink="http://www.w3.org/1999/xlink">
    <g id="graph1" class="graph" transform="scale(1 1) rotate(0) translate(4 400)">
        <title>g</title>
        <polygon fill="white" stroke="white" points="-4,5 -4,-400 314,-400 314,5 -4,5"></polygon>
        <!-- a -->
        <g id="node1" class="node"><title>a</title>
            <ellipse fill="none" stroke="black" cx="149" cy="-378" rx="27" ry="18"></ellipse>
            <text text-anchor="middle" x="149" y="-373.8" font-family="Times,serif" font-size="14.00">a</text>
        </g>
        <!-- b -->
        <g id="node3" class="node"><title>b</title>
            <ellipse fill="none" stroke="black" cx="100" cy="-306" rx="27" ry="18"></ellipse>
            <text text-anchor="middle" x="100" y="-301.8" font-family="Times,serif" font-size="14.00">b</text>
        </g>
        <!-- a&#45;&#45;b -->
        <g id="edge2" class="edge"><title>a--b</title>
            <path fill="none" stroke="black" d="M138.125,-361.465C130.005,-349.865 118.957,-334.082 110.844,-322.492"></path>
        </g>
        <!-- h -->
        <g id="node18" class="node"><title>h</title>
            <ellipse fill="none" stroke="black" cx="199" cy="-306" rx="27" ry="18"></ellipse>
            <text text-anchor="middle" x="199" y="-301.8" font-family="Times,serif" font-size="14.00">h</text>
        </g>
        <!-- a&#45;&#45;h -->
        <g id="edge20" class="edge"><title>a--h</title>
            <path fill="none" stroke="black" d="M160.097,-361.465C168.382,-349.865 179.656,-334.082 187.934,-322.492"></path>
        </g>
        <!-- c -->
        <g id="node5" class="node"><title>c</title>
            <ellipse fill="none" stroke="black" cx="45" cy="-234" rx="27" ry="18"></ellipse>
            <text text-anchor="middle" x="45" y="-229.8" font-family="Times,serif" font-size="14.00">c</text>
        </g>
        <!-- b&#45;&#45;c -->
        <g id="edge4" class="edge"><title>b--c</title>
            <path fill="none" stroke="black" d="M88.0658,-289.811C78.8405,-278.07 66.1304,-261.893 56.9109,-250.159"></path>
        </g>
        <!-- d -->
        <g id="node7" class="node"><title>d</title>
            <ellipse fill="none" stroke="black" cx="82" cy="-162" rx="27" ry="18"></ellipse>
            <text text-anchor="middle" x="82" y="-157.8" font-family="Times,serif" font-size="14.00">d</text>
        </g>
        <!-- b&#45;&#45;d -->
        <g id="edge6" class="edge"><title>b--d</title>
            <path fill="none" stroke="black" d="M97.8288,-287.871C94.3691,-260.578 87.6434,-207.52 84.1789,-180.189"></path>
        </g>
        <!-- c&#45;&#45;d -->
        <g id="edge8" class="edge"><title>c--d</title>
            <path fill="none" stroke="black" d="M53.5815,-216.765C59.559,-205.456 67.4978,-190.437 73.465,-179.147"></path>
        </g>
        <!-- e -->
        <g id="node10" class="node"><title>e</title>
            <ellipse fill="none" stroke="black" cx="27" cy="-90" rx="27" ry="18"></ellipse>
            <text text-anchor="middle" x="27" y="-85.8" font-family="Times,serif" font-size="14.00">e</text>
        </g>
        <!-- d&#45;&#45;e -->
        <g id="edge10" class="edge"><title>d--e</title>
            <path fill="none" stroke="black" d="M70.0658,-145.811C60.8405,-134.07 48.1304,-117.893 38.9109,-106.159"></path>
        </g>
        <!-- f -->
        <g id="node12" class="node"><title>f</title>
            <ellipse fill="none" stroke="black" cx="82" cy="-18" rx="27" ry="18"></ellipse>
            <text text-anchor="middle" x="82" y="-13.8" font-family="Times,serif" font-size="14.00">f</text>
        </g>
        <!-- d&#45;&#45;f -->
        <g id="edge12" class="edge"><title>d--f</title>
            <path fill="none" stroke="black" d="M82,-143.871C82,-116.578 82,-63.5205 82,-36.1893"></path>
        </g>
        <!-- g -->
        <g id="node15" class="node"><title>g</title>
            <ellipse fill="none" stroke="black" cx="137" cy="-90" rx="27" ry="18"></ellipse>
            <text text-anchor="middle" x="137" y="-85.8" font-family="Times,serif" font-size="14.00">g</text>
        </g>
        <!-- d&#45;&#45;g -->
        <g id="edge16" class="edge"><title>d--g</title>
            <path fill="none" stroke="black" d="M93.9342,-145.811C103.16,-134.07 115.87,-117.893 125.089,-106.159"></path>
        </g>
        <!-- e&#45;&#45;f -->
        <g id="edge14" class="edge"><title>e--f</title>
            <path fill="none" stroke="black" d="M38.9342,-73.811C48.1595,-62.0697 60.8696,-45.8932 70.0891,-34.1593"></path>
        </g>
        <!-- g&#45;&#45;f -->
        <g id="edge18" class="edge"><title>g--f</title>
            <path fill="none" stroke="black" d="M125.066,-73.811C115.84,-62.0697 103.13,-45.8932 93.9109,-34.1593"></path>
        </g>
        <!-- i -->
        <g id="node20" class="node"><title>i</title>
            <ellipse fill="none" stroke="black" cx="155" cy="-234" rx="27" ry="18"></ellipse>
            <text text-anchor="middle" x="155" y="-229.8" font-family="Times,serif" font-size="14.00">i</text>
        </g>
        <!-- h&#45;&#45;i -->
        <g id="edge22" class="edge"><title>h--i</title>
            <path fill="none" stroke="black" d="M189.016,-289.116C181.815,-277.66 172.137,-262.263 164.945,-250.821"></path>
        </g>
        <!-- j -->
        <g id="node22" class="node"><title>j</title>
            <ellipse fill="none" stroke="black" cx="227" cy="-234" rx="27" ry="18"></ellipse>
            <text text-anchor="middle" x="227" y="-229.8" font-family="Times,serif" font-size="14.00">j</text>
        </g>
        <!-- h&#45;&#45;j -->
        <g id="edge24" class="edge"><title>h--j</title>
            <path fill="none" stroke="black" d="M205.636,-288.411C210.099,-277.252 215.959,-262.604 220.412,-251.47"></path>
        </g>
        <!-- k -->
        <g id="node24" class="node"><title>k</title>
            <ellipse fill="none" stroke="black" cx="282" cy="-162" rx="27" ry="18"></ellipse>
            <text text-anchor="middle" x="282" y="-157.8" font-family="Times,serif" font-size="14.00">k</text>
        </g>
        <!-- h&#45;&#45;k -->
        <g id="edge26" class="edge"><title>h--k</title>
            <path fill="none" stroke="black" d="M218.85,-293.645C233.331,-284.316 252.235,-269.767 263,-252 276.509,-229.704 280.497,-199.176 281.625,-180.291"></path>
        </g>
        <!-- l -->
        <g id="node26" class="node"><title>l</title>
            <ellipse fill="none" stroke="black" cx="210" cy="-162" rx="27" ry="18"></ellipse>
            <text text-anchor="middle" x="210" y="-157.8" font-family="Times,serif" font-size="14.00">l</text>
        </g>
        <!-- i&#45;&#45;l -->
        <g id="edge28" class="edge"><title>i--l</title>
            <path fill="none" stroke="black" d="M166.934,-217.811C176.16,-206.07 188.87,-189.893 198.089,-178.159"></path>
        </g>
        <!-- j&#45;&#45;l -->
        <g id="edge30" class="edge"><title>j--l</title>
            <path fill="none" stroke="black" d="M222.885,-216.055C220.251,-205.211 216.844,-191.183 214.195,-180.275"></path>
        </g>
        <!-- m -->
        <g id="node29" class="node"><title>m</title>
            <ellipse fill="none" stroke="black" cx="228" cy="-90" rx="27" ry="18"></ellipse>
            <text text-anchor="middle" x="228" y="-85.8" font-family="Times,serif" font-size="14.00">m</text>
        </g>
        <!-- k&#45;&#45;m -->
        <g id="edge34" class="edge"><title>k--m</title>
            <path fill="none" stroke="black" d="M270.016,-145.465C261.067,-133.865 248.892,-118.082 239.951,-106.492"></path>
        </g>
        <!-- l&#45;&#45;m -->
        <g id="edge32" class="edge"><title>l--m</title>
            <path fill="none" stroke="black" d="M214.357,-144.055C217.187,-133.049 220.861,-118.764 223.683,-107.789"></path>
        </g>
    </g>
</svg>