<svg width="308pt" height="644pt" viewBox="0.00 0.00 307.91 644.00" xmlns="http://www.w3.org/2000/svg" xmlns:xlink="http://www.w3.org/1999/xlink">
    <g id="graph1" class="graph" transform="scale(1 1) rotate(0) translate(4 640)">
        <title>g</title>
        <polygon fill="white" stroke="white" points="-4,5 -4,-640 304.911,-640 304.911,5 -4,5"></polygon>
        <!-- a -->
        <g id="node1" class="node"><title>a</title>
            <ellipse fill="none" stroke="black" cx="184" cy="-606" rx="28.4559" ry="29.3315"></ellipse>
            <text text-anchor="middle" x="184" y="-610.2" font-family="Times,serif" font-size="14.00">a</text>
            <text text-anchor="middle" x="184" y="-593.4" font-family="Times,serif" font-size="14.00">1 13</text>
        </g>
        <!-- b -->
        <g id="node2" class="node"><title>b</title>
            <ellipse fill="none" stroke="black" cx="137" cy="-510" rx="27" ry="29.3315"></ellipse>
            <text text-anchor="middle" x="137" y="-514.2" font-family="Times,serif" font-size="14.00">b</text>
            <text text-anchor="middle" x="137" y="-497.4" font-family="Times,serif" font-size="14.00">2 6</text>
        </g>
        <!-- a&#45;&gt;b -->
        <g id="edge2" class="edge"><title>a-&gt;b</title>
            <path fill="none" stroke="black" stroke-width="2" d="M171.157,-579.314C165.934,-568.867 159.819,-556.637 154.218,-545.436"></path>
            <polygon fill="black" stroke="black" points="157.267,-543.708 149.665,-536.329 151.006,-546.839 157.267,-543.708"></polygon>
        </g>
        <!-- h -->
        <g id="node8" class="node"><title>h</title>
            <ellipse fill="none" stroke="black" cx="231" cy="-510" rx="28.4559" ry="29.3315"></ellipse>
            <text text-anchor="middle" x="231" y="-514.2" font-family="Times,serif" font-size="14.00">h</text>
            <text text-anchor="middle" x="231" y="-497.4" font-family="Times,serif" font-size="14.00">8 12</text>
        </g>
        <!-- a&#45;&gt;h -->
        <g id="edge20" class="edge"><title>a-&gt;h</title>
            <path fill="none" stroke="black" stroke-width="2" d="M196.843,-579.314C202.066,-568.867 208.181,-556.637 213.782,-545.436"></path>
            <polygon fill="black" stroke="black" points="216.994,-546.839 218.335,-536.329 210.733,-543.708 216.994,-546.839"></polygon>
        </g>
        <!-- c -->
        <g id="node3" class="node"><title>c</title>
            <ellipse fill="none" stroke="black" cx="82" cy="-414" rx="27" ry="29.3315"></ellipse>
            <text text-anchor="middle" x="82" y="-418.2" font-family="Times,serif" font-size="14.00">c</text>
            <text text-anchor="middle" x="82" y="-401.4" font-family="Times,serif" font-size="14.00">3 5</text>
        </g>
        <!-- b&#45;&gt;c -->
        <g id="edge4" class="edge"><title>b-&gt;c</title>
            <path fill="none" stroke="black" stroke-width="2" d="M122.836,-484.793C116.292,-473.609 108.419,-460.153 101.34,-448.054"></path>
            <polygon fill="black" stroke="black" points="104.187,-445.989 96.1159,-439.125 98.1451,-449.524 104.187,-445.989"></polygon>
        </g>
        <!-- d -->
        <g id="node4" class="node"><title>d</title>
            <ellipse fill="none" stroke="black" cx="82" cy="-318" rx="27" ry="29.3315"></ellipse>
            <text text-anchor="middle" x="82" y="-322.2" font-family="Times,serif" font-size="14.00">d</text>
            <text text-anchor="middle" x="82" y="-305.4" font-family="Times,serif" font-size="14.00">4 4</text>
        </g>
        <!-- c&#45;&gt;d -->
        <g id="edge6" class="edge"><title>c-&gt;d</title>
            <path fill="none" stroke="black" stroke-width="2" d="M82,-384.542C82,-376.153 82,-366.825 82,-357.899"></path>
            <polygon fill="black" stroke="black" points="85.5001,-357.686 82,-347.686 78.5001,-357.686 85.5001,-357.686"></polygon>
        </g>
        <!-- d&#45;&gt;b -->
        <g id="edge18" class="edge"><title>d-&gt;b</title>
            <path fill="none" stroke="red" stroke-dasharray="5,2" d="M97.4591,-342.136C104.786,-354.149 113.008,-369.347 118,-384 127.538,-411.999 132.299,-445.155 134.669,-470.282"></path>
            <polygon fill="red" stroke="red" points="131.206,-470.856 135.546,-480.521 138.18,-470.258 131.206,-470.856"></polygon>
        </g>
        <!-- e -->
        <g id="node5" class="node"><title>e</title>
            <ellipse fill="none" stroke="black" cx="27" cy="-222" rx="27" ry="29.3315"></ellipse>
            <text text-anchor="middle" x="27" y="-226.2" font-family="Times,serif" font-size="14.00">e</text>
            <text text-anchor="middle" x="27" y="-209.4" font-family="Times,serif" font-size="14.00">5 3</text>
        </g>
        <!-- d&#45;&gt;e -->
        <g id="edge8" class="edge"><title>d-&gt;e</title>
            <path fill="none" stroke="black" stroke-width="2" d="M67.8361,-292.793C61.2924,-281.609 53.4194,-268.153 46.3399,-256.054"></path>
            <polygon fill="black" stroke="black" points="49.1869,-253.989 41.1159,-247.125 43.1451,-257.524 49.1869,-253.989"></polygon>
        </g>
        <!-- f -->
        <g id="node6" class="node"><title>f</title>
            <ellipse fill="none" stroke="black" cx="65" cy="-126" rx="27" ry="29.3315"></ellipse>
            <text text-anchor="middle" x="65" y="-130.2" font-family="Times,serif" font-size="14.00">f</text>
            <text text-anchor="middle" x="65" y="-113.4" font-family="Times,serif" font-size="14.00">6 2</text>
        </g>
        <!-- e&#45;&gt;f -->
        <g id="edge12" class="edge"><title>e-&gt;f</title>
            <path fill="none" stroke="black" stroke-width="2" d="M37.5851,-194.816C41.5868,-184.917 46.2125,-173.474 50.5112,-162.841"></path>
            <polygon fill="black" stroke="black" points="53.8368,-163.953 54.3399,-153.37 47.347,-161.329 53.8368,-163.953"></polygon>
        </g>
        <!-- f&#45;&gt;d -->
        <g id="edge16" class="edge"><title>f-&gt;d</title>
            <path fill="none" stroke="red" stroke-dasharray="5,2" d="M67.5347,-155.329C70.4555,-187.973 75.2715,-241.8 78.5367,-278.292"></path>
            <polygon fill="red" stroke="red" points="75.0776,-278.907 79.4549,-288.555 82.0497,-278.283 75.0776,-278.907"></polygon>
        </g>
        <!-- g -->
        <g id="node7" class="node"><title>g</title>
            <ellipse fill="none" stroke="black" cx="92" cy="-30" rx="27" ry="29.3315"></ellipse>
            <text text-anchor="middle" x="92" y="-34.2" font-family="Times,serif" font-size="14.00">g</text>
            <text text-anchor="middle" x="92" y="-17.4" font-family="Times,serif" font-size="14.00">7 1</text>
        </g>
        <!-- f&#45;&gt;g -->
        <g id="edge10" class="edge"><title>f-&gt;g</title>
            <path fill="none" stroke="black" stroke-width="2" d="M72.8095,-97.8113C75.4728,-88.5393 78.4976,-78.0082 81.3455,-68.0933"></path>
            <polygon fill="black" stroke="black" points="84.7177,-69.0309 84.1145,-58.4532 77.9897,-67.0983 84.7177,-69.0309"></polygon>
        </g>
        <!-- g&#45;&gt;d -->
        <g id="edge14" class="edge"><title>g-&gt;d</title>
            <path fill="none" stroke="red" stroke-dasharray="5,2" d="M96.7459,-59.0673C98.4523,-70.4885 100.162,-83.839 101,-96 105.436,-160.377 95.9241,-235.163 88.8234,-279.15"></path>
            <polygon fill="red" stroke="red" points="85.3543,-278.676 87.1705,-289.114 92.2599,-279.822 85.3543,-278.676"></polygon>
        </g>
        <!-- i -->
        <g id="node9" class="node"><title>i</title>
            <ellipse fill="none" stroke="black" cx="195" cy="-414" rx="28.4559" ry="29.3315"></ellipse>
            <text text-anchor="middle" x="195" y="-418.2" font-family="Times,serif" font-size="14.00">i</text>
            <text text-anchor="middle" x="195" y="-401.4" font-family="Times,serif" font-size="14.00">9 11</text>
        </g>
        <!-- h&#45;&gt;i -->
        <g id="edge22" class="edge"><title>h-&gt;i</title>
            <path fill="none" stroke="black" stroke-width="2" d="M220.78,-482.315C217.094,-472.69 212.869,-461.657 208.92,-451.347"></path>
            <polygon fill="black" stroke="black" points="212.09,-449.839 205.245,-441.752 205.553,-452.342 212.09,-449.839"></polygon>
        </g>
        <!-- l -->
        <g id="node12" class="node"><title>l</title>
            <ellipse fill="none" stroke="black" cx="190" cy="-318" rx="33.3808" ry="29.3315"></ellipse>
            <text text-anchor="middle" x="190" y="-322.2" font-family="Times,serif" font-size="14.00">l</text>
            <text text-anchor="middle" x="190" y="-305.4" font-family="Times,serif" font-size="14.00">10 10</text>
        </g>
        <!-- i&#45;&gt;l -->
        <g id="edge24" class="edge"><title>i-&gt;l</title>
            <path fill="none" stroke="black" stroke-width="2" d="M193.486,-384.542C193.04,-376.153 192.544,-366.825 192.069,-357.899"></path>
            <polygon fill="black" stroke="black" points="195.552,-357.486 191.526,-347.686 188.562,-357.858 195.552,-357.486"></polygon>
        </g>
        <!-- j -->
        <g id="node10" class="node"><title>j</title>
            <ellipse fill="none" stroke="black" cx="252" cy="-222" rx="28.4559" ry="29.3315"></ellipse>
            <text text-anchor="middle" x="252" y="-226.2" font-family="Times,serif" font-size="14.00">j</text>
            <text text-anchor="middle" x="252" y="-209.4" font-family="Times,serif" font-size="14.00">11 9</text>
        </g>
        <!-- j&#45;&gt;h -->
        <g id="edge34" class="edge"><title>j-&gt;h</title>
            <path fill="none" stroke="red" stroke-dasharray="5,2" d="M249.918,-251.353C246.135,-302.876 238.129,-411.915 233.845,-470.254"></path>
            <polygon fill="red" stroke="red" points="230.332,-470.302 233.09,-480.532 237.313,-470.815 230.332,-470.302"></polygon>
        </g>
        <!-- k -->
        <g id="node11" class="node"><title>k</title>
            <ellipse fill="none" stroke="black" cx="243" cy="-126" rx="28.4559" ry="29.3315"></ellipse>
            <text text-anchor="middle" x="243" y="-130.2" font-family="Times,serif" font-size="14.00">k</text>
            <text text-anchor="middle" x="243" y="-113.4" font-family="Times,serif" font-size="14.00">13 7</text>
        </g>
        <!-- k&#45;&gt;h -->
        <g id="edge32" class="edge"><title>k-&gt;h</title>
            <path fill="none" stroke="red" stroke-dasharray="5,2" d="M262.455,-147.42C272.494,-159.395 283.72,-175.4 289,-192 320.725,-291.747 275.105,-415.004 248.244,-474.137"></path>
            <polygon fill="red" stroke="red" points="244.979,-472.856 243.949,-483.401 251.33,-475.801 244.979,-472.856"></polygon>
        </g>
        <!-- l&#45;&gt;j -->
        <g id="edge26" class="edge"><title>l-&gt;j</title>
            <path fill="none" stroke="black" stroke-width="2" d="M206.29,-292.303C213.738,-281.01 222.662,-267.48 230.64,-255.385"></path>
            <polygon fill="black" stroke="black" points="233.663,-257.158 236.247,-246.883 227.819,-253.304 233.663,-257.158"></polygon>
        </g>
        <!-- m -->
        <g id="node13" class="node"><title>m</title>
            <ellipse fill="none" stroke="black" cx="177" cy="-222" rx="28.4559" ry="29.3315"></ellipse>
            <text text-anchor="middle" x="177" y="-226.2" font-family="Times,serif" font-size="14.00">m</text>
            <text text-anchor="middle" x="177" y="-209.4" font-family="Times,serif" font-size="14.00">12 8</text>
        </g>
        <!-- l&#45;&gt;m -->
        <g id="edge28" class="edge"><title>l-&gt;m</title>
            <path fill="none" stroke="black" stroke-width="2" d="M186.064,-288.542C184.881,-279.983 183.562,-270.447 182.305,-261.358"></path>
            <polygon fill="black" stroke="black" points="185.759,-260.788 180.922,-251.361 178.825,-261.747 185.759,-260.788"></polygon>
        </g>
        <!-- m&#45;&gt;k -->
        <g id="edge30" class="edge"><title>m-&gt;k</title>
            <path fill="none" stroke="black" stroke-width="2" d="M193.315,-197.764C201.565,-186.014 211.703,-171.575 220.665,-158.81"></path>
            <polygon fill="black" stroke="black" points="223.762,-160.49 226.644,-150.294 218.034,-156.467 223.762,-160.49"></polygon>
        </g>
    </g>
</svg>