<svg width="317pt" height="548pt" viewBox="0.00 0.00 317.00 548.00" xmlns="http://www.w3.org/2000/svg" xmlns:xlink="http://www.w3.org/1999/xlink">
    <g id="graph1" class="graph" transform="scale(1 1) rotate(0) translate(4 544)">
        <title>g</title>
        <polygon fill="white" stroke="white" points="-4,5 -4,-544 314,-544 314,5 -4,5"></polygon>
        <!-- a -->
        <g id="node1" class="node"><title>a</title>
            <ellipse fill="none" stroke="black" cx="149" cy="-510" rx="27" ry="29.3315"></ellipse>
            <text text-anchor="middle" x="149" y="-514.2" font-family="Times,serif" font-size="14.00">a</text>
            <text text-anchor="middle" x="149" y="-497.4" font-family="Times,serif" font-size="14.00">1</text>
        </g>
        <!-- b -->
        <g id="node2" class="node"><title>b</title>
            <ellipse fill="none" stroke="black" cx="100" cy="-414" rx="27" ry="29.3315"></ellipse>
            <text text-anchor="middle" x="100" y="-418.2" font-family="Times,serif" font-size="14.00">b</text>
            <text text-anchor="middle" x="100" y="-401.4" font-family="Times,serif" font-size="14.00">2</text>
        </g>
        <!-- a&#45;&#45;b -->
        <g id="edge2" class="edge"><title>a--b</title>
            <path fill="none" stroke="black" d="M135.869,-483.81C128.782,-470.214 120.064,-453.49 112.997,-439.934"></path>
        </g>
        <!-- h -->
        <g id="node8" class="node"><title>h</title>
            <ellipse fill="none" stroke="black" cx="199" cy="-414" rx="27" ry="29.3315"></ellipse>
            <text text-anchor="middle" x="199" y="-418.2" font-family="Times,serif" font-size="14.00">h</text>
            <text text-anchor="middle" x="199" y="-401.4" font-family="Times,serif" font-size="14.00">3</text>
        </g>
        <!-- a&#45;&#45;h -->
        <g id="edge20" class="edge"><title>a--h</title>
            <path fill="none" stroke="black" d="M162.399,-483.81C169.631,-470.214 178.527,-453.49 185.737,-439.934"></path>
        </g>
        <!-- c -->
        <g id="node3" class="node"><title>c</title>
            <ellipse fill="none" stroke="black" cx="45" cy="-318" rx="27" ry="29.3315"></ellipse>
            <text text-anchor="middle" x="45" y="-322.2" font-family="Times,serif" font-size="14.00">c</text>
            <text text-anchor="middle" x="45" y="-305.4" font-family="Times,serif" font-size="14.00">4</text>
        </g>
        <!-- b&#45;&#45;c -->
        <g id="edge4" class="edge"><title>b--c</title>
            <path fill="none" stroke="black" d="M85.8361,-388.793C77.6244,-374.758 67.3194,-357.146 59.1159,-343.125"></path>
        </g>
        <!-- d -->
        <g id="node4" class="node"><title>d</title>
            <ellipse fill="none" stroke="black" cx="82" cy="-222" rx="27" ry="29.3315"></ellipse>
            <text text-anchor="middle" x="82" y="-226.2" font-family="Times,serif" font-size="14.00">d</text>
            <text text-anchor="middle" x="82" y="-209.4" font-family="Times,serif" font-size="14.00">5</text>
        </g>
        <!-- b&#45;&#45;d -->
        <g id="edge6" class="edge"><title>b--d</title>
            <path fill="none" stroke="black" d="M97.3052,-384.555C93.902,-348.633 88.0817,-287.196 84.6838,-251.329"></path>
        </g>
        <!-- c&#45;&#45;d -->
        <g id="edge8" class="edge"><title>c--d</title>
            <path fill="none" stroke="black" d="M55.405,-290.566C60.4921,-277.642 66.5964,-262.133 71.6731,-249.236"></path>
        </g>
        <!-- e -->
        <g id="node5" class="node"><title>e</title>
            <ellipse fill="none" stroke="black" cx="27" cy="-126" rx="27" ry="29.3315"></ellipse>
            <text text-anchor="middle" x="27" y="-130.2" font-family="Times,serif" font-size="14.00">e</text>
            <text text-anchor="middle" x="27" y="-113.4" font-family="Times,serif" font-size="14.00">9</text>
        </g>
        <!-- d&#45;&#45;e -->
        <g id="edge10" class="edge"><title>d--e</title>
            <path fill="none" stroke="black" d="M67.8361,-196.793C59.6244,-182.758 49.3194,-165.146 41.1159,-151.125"></path>
        </g>
        <!-- f -->
        <g id="node6" class="node"><title>f</title>
            <ellipse fill="none" stroke="black" cx="82" cy="-30" rx="27" ry="29.3315"></ellipse>
            <text text-anchor="middle" x="82" y="-34.2" font-family="Times,serif" font-size="14.00">f</text>
            <text text-anchor="middle" x="82" y="-17.4" font-family="Times,serif" font-size="14.00">10</text>
        </g>
        <!-- d&#45;&#45;f -->
        <g id="edge12" class="edge"><title>d--f</title>
            <path fill="none" stroke="black" d="M82,-192.555C82,-156.736 82,-95.5498 82,-59.6394"></path>
        </g>
        <!-- g -->
        <g id="node7" class="node"><title>g</title>
            <ellipse fill="none" stroke="black" cx="137" cy="-126" rx="27" ry="29.3315"></ellipse>
            <text text-anchor="middle" x="137" y="-130.2" font-family="Times,serif" font-size="14.00">g</text>
            <text text-anchor="middle" x="137" y="-113.4" font-family="Times,serif" font-size="14.00">11</text>
        </g>
        <!-- d&#45;&#45;g -->
        <g id="edge16" class="edge"><title>d--g</title>
            <path fill="none" stroke="black" d="M96.1639,-196.793C104.376,-182.758 114.681,-165.146 122.884,-151.125"></path>
        </g>
        <!-- e&#45;&#45;f -->
        <g id="edge14" class="edge"><title>e--f</title>
            <path fill="none" stroke="black" d="M41.1639,-100.793C49.3756,-86.7581 59.6806,-69.1459 67.8841,-55.1253"></path>
        </g>
        <!-- g&#45;&#45;f -->
        <g id="edge18" class="edge"><title>g--f</title>
            <path fill="none" stroke="black" d="M122.836,-100.793C114.624,-86.7581 104.319,-69.1459 96.1159,-55.1253"></path>
        </g>
        <!-- i -->
        <g id="node9" class="node"><title>i</title>
            <ellipse fill="none" stroke="black" cx="155" cy="-318" rx="27" ry="29.3315"></ellipse>
            <text text-anchor="middle" x="155" y="-322.2" font-family="Times,serif" font-size="14.00">i</text>
            <text text-anchor="middle" x="155" y="-305.4" font-family="Times,serif" font-size="14.00">6</text>
        </g>
        <!-- h&#45;&#45;i -->
        <g id="edge22" class="edge"><title>h--i</title>
            <path fill="none" stroke="black" d="M186.977,-387.314C180.768,-374.051 173.215,-357.914 167.009,-344.655"></path>
        </g>
        <!-- j -->
        <g id="node10" class="node"><title>j</title>
            <ellipse fill="none" stroke="black" cx="227" cy="-318" rx="27" ry="29.3315"></ellipse>
            <text text-anchor="middle" x="227" y="-322.2" font-family="Times,serif" font-size="14.00">j</text>
            <text text-anchor="middle" x="227" y="-305.4" font-family="Times,serif" font-size="14.00">7</text>
        </g>
        <!-- h&#45;&#45;j -->
        <g id="edge24" class="edge"><title>h--j</title>
            <path fill="none" stroke="black" d="M207.099,-385.811C210.814,-373.34 215.207,-358.591 218.919,-346.128"></path>
        </g>
        <!-- k -->
        <g id="node11" class="node"><title>k</title>
            <ellipse fill="none" stroke="black" cx="282" cy="-222" rx="27" ry="29.3315"></ellipse>
            <text text-anchor="middle" x="282" y="-226.2" font-family="Times,serif" font-size="14.00">k</text>
            <text text-anchor="middle" x="282" y="-209.4" font-family="Times,serif" font-size="14.00">8</text>
        </g>
        <!-- h&#45;&#45;k -->
        <g id="edge26" class="edge"><title>h--k</title>
            <path fill="none" stroke="black" d="M221.021,-396.756C235.381,-384.903 253.215,-367.542 263,-348 278.283,-317.479 282.01,-277.916 282.581,-251.557"></path>
        </g>
        <!-- l -->
        <g id="node12" class="node"><title>l</title>
            <ellipse fill="none" stroke="black" cx="210" cy="-222" rx="27" ry="29.3315"></ellipse>
            <text text-anchor="middle" x="210" y="-226.2" font-family="Times,serif" font-size="14.00">l</text>
            <text text-anchor="middle" x="210" y="-209.4" font-family="Times,serif" font-size="14.00">12</text>
        </g>
        <!-- i&#45;&#45;l -->
        <g id="edge28" class="edge"><title>i--l</title>
            <path fill="none" stroke="black" d="M169.164,-292.793C177.376,-278.758 187.681,-261.146 195.884,-247.125"></path>
        </g>
        <!-- j&#45;&#45;l -->
        <g id="edge30" class="edge"><title>j--l</title>
            <path fill="none" stroke="black" d="M221.945,-289.051C219.773,-277.037 217.238,-263.024 215.064,-251.003"></path>
        </g>
        <!-- m -->
        <g id="node13" class="node"><title>m</title>
            <ellipse fill="none" stroke="black" cx="228" cy="-126" rx="27" ry="29.3315"></ellipse>
            <text text-anchor="middle" x="228" y="-130.2" font-family="Times,serif" font-size="14.00">m</text>
            <text text-anchor="middle" x="228" y="-113.4" font-family="Times,serif" font-size="14.00">13</text>
        </g>
        <!-- k&#45;&#45;m -->
        <g id="edge34" class="edge"><title>k--m</title>
            <path fill="none" stroke="black" d="M267.812,-196.303C259.875,-182.486 250.015,-165.322 242.093,-151.532"></path>
        </g>
        <!-- l&#45;&#45;m -->
        <g id="edge32" class="edge"><title>l--m</title>
            <path fill="none" stroke="black" d="M215.352,-193.051C217.652,-181.037 220.336,-167.024 222.638,-155.003"></path>
        </g>
    </g>
</svg>